<svg width="69" height="73" viewBox="0 0 69 73" fill="none" xmlns="http://www.w3.org/2000/svg">
<path d="M66.4827 57.3155C61.9555 63.8366 55.4256 68.7039 47.883 71.1797C40.3403 73.6554 32.1962 73.6046 24.685 71.0349C17.1739 68.4652 10.7053 63.5167 6.25975 56.9396C1.81424 50.3625 -0.365783 42.5154 0.0501278 34.5877C0.466039 26.6601 3.45521 19.0841 8.56453 13.0083C13.6739 6.93249 20.6247 2.68807 28.3635 0.918431C36.1024 -0.851206 44.2071 -0.0495695 51.4493 3.20183C58.6915 6.45322 64.6762 11.9771 68.4962 18.9361L60.5257 23.3114C57.6573 18.0859 53.1634 13.9381 47.7253 11.4967C42.2872 9.0552 36.2014 8.45326 30.3904 9.78207C24.5794 11.1109 19.36 14.298 15.5235 18.8603C11.6869 23.4226 9.44237 29.1113 9.13006 35.0641C8.81776 41.0169 10.4547 46.9093 13.7928 51.8479C17.1309 56.7866 21.9881 60.5024 27.6282 62.432C33.2683 64.3615 39.3837 64.3997 45.0474 62.5407C50.7111 60.6817 55.6143 57.0268 59.0138 52.1302L66.4827 57.3155Z" fill="#F46C5E"/>
</svg>
