<svg width="165" height="51" viewBox="0 0 165 51" fill="none" xmlns="http://www.w3.org/2000/svg">
<path d="M164.63 37.4826C164.63 44.9031 158.088 50.9826 150.103 50.9826H14.5269C6.54191 50.9826 0 44.9031 0 37.4826V13.5C0 6.07942 6.54191 0 14.5269 0H150.103C158.088 0 164.63 6.07942 164.63 13.5V37.4826Z" fill="#404040"/>
<path d="M51.0179 17.24C51.0179 16.68 51.1312 16.19 51.3579 15.77C51.5846 15.3433 51.8946 15.0133 52.2879 14.78C52.6879 14.5467 53.1312 14.43 53.6179 14.43C54.0979 14.43 54.5146 14.5333 54.8679 14.74C55.2212 14.9467 55.4846 15.2067 55.6579 15.52V14.52H56.5779V20H55.6579V18.98C55.4779 19.3 55.2079 19.5667 54.8479 19.78C54.4946 19.9867 54.0812 20.09 53.6079 20.09C53.1212 20.09 52.6812 19.97 52.2879 19.73C51.8946 19.49 51.5846 19.1533 51.3579 18.72C51.1312 18.2867 51.0179 17.7933 51.0179 17.24ZM55.6579 17.25C55.6579 16.8367 55.5746 16.4767 55.4079 16.17C55.2412 15.8633 55.0146 15.63 54.7279 15.47C54.4479 15.3033 54.1379 15.22 53.7979 15.22C53.4579 15.22 53.1479 15.3 52.8679 15.46C52.5879 15.62 52.3646 15.8533 52.1979 16.16C52.0312 16.4667 51.9479 16.8267 51.9479 17.24C51.9479 17.66 52.0312 18.0267 52.1979 18.34C52.3646 18.6467 52.5879 18.8833 52.8679 19.05C53.1479 19.21 53.4579 19.29 53.7979 19.29C54.1379 19.29 54.4479 19.21 54.7279 19.05C55.0146 18.8833 55.2412 18.6467 55.4079 18.34C55.5746 18.0267 55.6579 17.6633 55.6579 17.25ZM60.7857 14.42C61.4524 14.42 61.9924 14.6233 62.4057 15.03C62.819 15.43 63.0257 16.01 63.0257 16.77V20H62.1257V16.9C62.1257 16.3533 61.989 15.9367 61.7157 15.65C61.4424 15.3567 61.069 15.21 60.5957 15.21C60.1157 15.21 59.7324 15.36 59.4457 15.66C59.1657 15.96 59.0257 16.3967 59.0257 16.97V20H58.1157V14.52H59.0257V15.3C59.2057 15.02 59.449 14.8033 59.7557 14.65C60.069 14.4967 60.4124 14.42 60.7857 14.42ZM64.1722 17.24C64.1722 16.68 64.2855 16.19 64.5122 15.77C64.7389 15.3433 65.0489 15.0133 65.4422 14.78C65.8422 14.5467 66.2889 14.43 66.7822 14.43C67.2089 14.43 67.6055 14.53 67.9722 14.73C68.3389 14.9233 68.6189 15.18 68.8122 15.5V12.6H69.7322V20H68.8122V18.97C68.6322 19.2967 68.3655 19.5667 68.0122 19.78C67.6589 19.9867 67.2455 20.09 66.7722 20.09C66.2855 20.09 65.8422 19.97 65.4422 19.73C65.0489 19.49 64.7389 19.1533 64.5122 18.72C64.2855 18.2867 64.1722 17.7933 64.1722 17.24ZM68.8122 17.25C68.8122 16.8367 68.7289 16.4767 68.5622 16.17C68.3955 15.8633 68.1689 15.63 67.8822 15.47C67.6022 15.3033 67.2922 15.22 66.9522 15.22C66.6122 15.22 66.3022 15.3 66.0222 15.46C65.7422 15.62 65.5189 15.8533 65.3522 16.16C65.1855 16.4667 65.1022 16.8267 65.1022 17.24C65.1022 17.66 65.1855 18.0267 65.3522 18.34C65.5189 18.6467 65.7422 18.8833 66.0222 19.05C66.3022 19.21 66.6122 19.29 66.9522 19.29C67.2922 19.29 67.6022 19.21 67.8822 19.05C68.1689 18.8833 68.3955 18.6467 68.5622 18.34C68.7289 18.0267 68.8122 17.6633 68.8122 17.25ZM72.18 15.41C72.34 15.0967 72.5667 14.8533 72.86 14.68C73.16 14.5067 73.5233 14.42 73.95 14.42V15.36H73.71C72.69 15.36 72.18 15.9133 72.18 17.02V20H71.27V14.52H72.18V15.41ZM77.3905 20.09C76.8771 20.09 76.4105 19.9733 75.9905 19.74C75.5771 19.5067 75.2505 19.1767 75.0105 18.75C74.7771 18.3167 74.6605 17.8167 74.6605 17.25C74.6605 16.69 74.7805 16.1967 75.0205 15.77C75.2671 15.3367 75.6005 15.0067 76.0205 14.78C76.4405 14.5467 76.9105 14.43 77.4305 14.43C77.9505 14.43 78.4205 14.5467 78.8405 14.78C79.2605 15.0067 79.5905 15.3333 79.8305 15.76C80.0771 16.1867 80.2005 16.6833 80.2005 17.25C80.2005 17.8167 80.0738 18.3167 79.8205 18.75C79.5738 19.1767 79.2371 19.5067 78.8105 19.74C78.3838 19.9733 77.9105 20.09 77.3905 20.09ZM77.3905 19.29C77.7171 19.29 78.0238 19.2133 78.3105 19.06C78.5971 18.9067 78.8271 18.6767 79.0005 18.37C79.1805 18.0633 79.2705 17.69 79.2705 17.25C79.2705 16.81 79.1838 16.4367 79.0105 16.13C78.8371 15.8233 78.6105 15.5967 78.3305 15.45C78.0505 15.2967 77.7471 15.22 77.4205 15.22C77.0871 15.22 76.7805 15.2967 76.5005 15.45C76.2271 15.5967 76.0071 15.8233 75.8405 16.13C75.6738 16.4367 75.5905 16.81 75.5905 17.25C75.5905 17.6967 75.6705 18.0733 75.8305 18.38C75.9971 18.6867 76.2171 18.9167 76.4905 19.07C76.7638 19.2167 77.0638 19.29 77.3905 19.29ZM81.867 13.63C81.6936 13.63 81.547 13.57 81.427 13.45C81.307 13.33 81.247 13.1833 81.247 13.01C81.247 12.8367 81.307 12.69 81.427 12.57C81.547 12.45 81.6936 12.39 81.867 12.39C82.0336 12.39 82.1736 12.45 82.287 12.57C82.407 12.69 82.467 12.8367 82.467 13.01C82.467 13.1833 82.407 13.33 82.287 13.45C82.1736 13.57 82.0336 13.63 81.867 13.63ZM82.307 14.52V20H81.397V14.52H82.307ZM83.5179 17.24C83.5179 16.68 83.6312 16.19 83.8579 15.77C84.0846 15.3433 84.3946 15.0133 84.7879 14.78C85.1879 14.5467 85.6346 14.43 86.1279 14.43C86.5546 14.43 86.9512 14.53 87.3179 14.73C87.6846 14.9233 87.9646 15.18 88.1579 15.5V12.6H89.0779V20H88.1579V18.97C87.9779 19.2967 87.7112 19.5667 87.3579 19.78C87.0046 19.9867 86.5912 20.09 86.1179 20.09C85.6312 20.09 85.1879 19.97 84.7879 19.73C84.3946 19.49 84.0846 19.1533 83.8579 18.72C83.6312 18.2867 83.5179 17.7933 83.5179 17.24ZM88.1579 17.25C88.1579 16.8367 88.0746 16.4767 87.9079 16.17C87.7412 15.8633 87.5146 15.63 87.2279 15.47C86.9479 15.3033 86.6379 15.22 86.2979 15.22C85.9579 15.22 85.6479 15.3 85.3679 15.46C85.0879 15.62 84.8646 15.8533 84.6979 16.16C84.5312 16.4667 84.4479 16.8267 84.4479 17.24C84.4479 17.66 84.5312 18.0267 84.6979 18.34C84.8646 18.6467 85.0879 18.8833 85.3679 19.05C85.6479 19.21 85.9579 19.29 86.2979 19.29C86.6379 19.29 86.9479 19.21 87.2279 19.05C87.5146 18.8833 87.7412 18.6467 87.9079 18.34C88.0746 18.0267 88.1579 17.6633 88.1579 17.25ZM92.9417 17.24C92.9417 16.68 93.0551 16.19 93.2817 15.77C93.5084 15.3433 93.8184 15.0133 94.2117 14.78C94.6117 14.5467 95.0551 14.43 95.5417 14.43C96.0217 14.43 96.4384 14.5333 96.7917 14.74C97.1451 14.9467 97.4084 15.2067 97.5817 15.52V14.52H98.5017V20H97.5817V18.98C97.4017 19.3 97.1317 19.5667 96.7717 19.78C96.4184 19.9867 96.0051 20.09 95.5317 20.09C95.0451 20.09 94.6051 19.97 94.2117 19.73C93.8184 19.49 93.5084 19.1533 93.2817 18.72C93.0551 18.2867 92.9417 17.7933 92.9417 17.24ZM97.5817 17.25C97.5817 16.8367 97.4984 16.4767 97.3317 16.17C97.1651 15.8633 96.9384 15.63 96.6517 15.47C96.3717 15.3033 96.0617 15.22 95.7217 15.22C95.3817 15.22 95.0717 15.3 94.7917 15.46C94.5117 15.62 94.2884 15.8533 94.1217 16.16C93.9551 16.4667 93.8717 16.8267 93.8717 17.24C93.8717 17.66 93.9551 18.0267 94.1217 18.34C94.2884 18.6467 94.5117 18.8833 94.7917 19.05C95.0717 19.21 95.3817 19.29 95.7217 19.29C96.0617 19.29 96.3717 19.21 96.6517 19.05C96.9384 18.8833 97.1651 18.6467 97.3317 18.34C97.4984 18.0267 97.5817 17.6633 97.5817 17.25ZM100.95 15.53C101.13 15.2167 101.396 14.9567 101.75 14.75C102.11 14.5367 102.526 14.43 103 14.43C103.486 14.43 103.926 14.5467 104.32 14.78C104.72 15.0133 105.033 15.3433 105.26 15.77C105.486 16.19 105.6 16.68 105.6 17.24C105.6 17.7933 105.486 18.2867 105.26 18.72C105.033 19.1533 104.72 19.49 104.32 19.73C103.926 19.97 103.486 20.09 103 20.09C102.533 20.09 102.12 19.9867 101.76 19.78C101.406 19.5667 101.136 19.3033 100.95 18.99V22.6H100.04V14.52H100.95V15.53ZM104.67 17.24C104.67 16.8267 104.586 16.4667 104.42 16.16C104.253 15.8533 104.026 15.62 103.74 15.46C103.46 15.3 103.15 15.22 102.81 15.22C102.476 15.22 102.166 15.3033 101.88 15.47C101.6 15.63 101.373 15.8667 101.2 16.18C101.033 16.4867 100.95 16.8433 100.95 17.25C100.95 17.6633 101.033 18.0267 101.2 18.34C101.373 18.6467 101.6 18.8833 101.88 19.05C102.166 19.21 102.476 19.29 102.81 19.29C103.15 19.29 103.46 19.21 103.74 19.05C104.026 18.8833 104.253 18.6467 104.42 18.34C104.586 18.0267 104.67 17.66 104.67 17.24ZM107.707 15.53C107.887 15.2167 108.154 14.9567 108.507 14.75C108.867 14.5367 109.284 14.43 109.757 14.43C110.244 14.43 110.684 14.5467 111.077 14.78C111.477 15.0133 111.791 15.3433 112.017 15.77C112.244 16.19 112.357 16.68 112.357 17.24C112.357 17.7933 112.244 18.2867 112.017 18.72C111.791 19.1533 111.477 19.49 111.077 19.73C110.684 19.97 110.244 20.09 109.757 20.09C109.291 20.09 108.877 19.9867 108.517 19.78C108.164 19.5667 107.894 19.3033 107.707 18.99V22.6H106.797V14.52H107.707V15.53ZM111.427 17.24C111.427 16.8267 111.344 16.4667 111.177 16.16C111.011 15.8533 110.784 15.62 110.497 15.46C110.217 15.3 109.907 15.22 109.567 15.22C109.234 15.22 108.924 15.3033 108.637 15.47C108.357 15.63 108.131 15.8667 107.957 16.18C107.791 16.4867 107.707 16.8433 107.707 17.25C107.707 17.6633 107.791 18.0267 107.957 18.34C108.131 18.6467 108.357 18.8833 108.637 19.05C108.924 19.21 109.234 19.29 109.567 19.29C109.907 19.29 110.217 19.21 110.497 19.05C110.784 18.8833 111.011 18.6467 111.177 18.34C111.344 18.0267 111.427 17.66 111.427 17.24ZM118.611 20.09C118.098 20.09 117.631 19.9733 117.211 19.74C116.798 19.5067 116.471 19.1767 116.231 18.75C115.998 18.3167 115.881 17.8167 115.881 17.25C115.881 16.69 116.001 16.1967 116.241 15.77C116.488 15.3367 116.821 15.0067 117.241 14.78C117.661 14.5467 118.131 14.43 118.651 14.43C119.171 14.43 119.641 14.5467 120.061 14.78C120.481 15.0067 120.811 15.3333 121.051 15.76C121.298 16.1867 121.421 16.6833 121.421 17.25C121.421 17.8167 121.295 18.3167 121.041 18.75C120.795 19.1767 120.458 19.5067 120.031 19.74C119.605 19.9733 119.131 20.09 118.611 20.09ZM118.611 19.29C118.938 19.29 119.245 19.2133 119.531 19.06C119.818 18.9067 120.048 18.6767 120.221 18.37C120.401 18.0633 120.491 17.69 120.491 17.25C120.491 16.81 120.405 16.4367 120.231 16.13C120.058 15.8233 119.831 15.5967 119.551 15.45C119.271 15.2967 118.968 15.22 118.641 15.22C118.308 15.22 118.001 15.2967 117.721 15.45C117.448 15.5967 117.228 15.8233 117.061 16.13C116.895 16.4367 116.811 16.81 116.811 17.25C116.811 17.6967 116.891 18.0733 117.051 18.38C117.218 18.6867 117.438 18.9167 117.711 19.07C117.985 19.2167 118.285 19.29 118.611 19.29ZM125.288 14.42C125.954 14.42 126.494 14.6233 126.908 15.03C127.321 15.43 127.528 16.01 127.528 16.77V20H126.628V16.9C126.628 16.3533 126.491 15.9367 126.218 15.65C125.944 15.3567 125.571 15.21 125.098 15.21C124.618 15.21 124.234 15.36 123.948 15.66C123.668 15.96 123.528 16.3967 123.528 16.97V20H122.618V14.52H123.528V15.3C123.708 15.02 123.951 14.8033 124.258 14.65C124.571 14.4967 124.914 14.42 125.288 14.42Z" fill="white"/>
<path d="M58.7748 32.8507C58.4268 32.1187 57.9228 31.5547 57.2628 31.1587C56.6028 30.7507 55.8348 30.5467 54.9588 30.5467C54.0828 30.5467 53.2908 30.7507 52.5828 31.1587C51.8868 31.5547 51.3348 32.1307 50.9268 32.8867C50.5308 33.6307 50.3328 34.4947 50.3328 35.4787C50.3328 36.4627 50.5308 37.3267 50.9268 38.0707C51.3348 38.8147 51.8868 39.3907 52.5828 39.7987C53.2908 40.1947 54.0828 40.3927 54.9588 40.3927C56.1828 40.3927 57.1908 40.0267 57.9828 39.2947C58.7748 38.5627 59.2368 37.5727 59.3688 36.3247H54.3648V34.9927H61.1148V36.2527C61.0188 37.2847 60.6948 38.2327 60.1428 39.0967C59.5908 39.9487 58.8648 40.6267 57.9648 41.1307C57.0648 41.6227 56.0628 41.8687 54.9588 41.8687C53.7948 41.8687 52.7328 41.5987 51.7728 41.0587C50.8128 40.5067 50.0508 39.7447 49.4868 38.7727C48.9348 37.8007 48.6588 36.7027 48.6588 35.4787C48.6588 34.2547 48.9348 33.1567 49.4868 32.1847C50.0508 31.2007 50.8128 30.4387 51.7728 29.8987C52.7328 29.3467 53.7948 29.0707 54.9588 29.0707C56.2908 29.0707 57.4668 29.4007 58.4868 30.0607C59.5188 30.7207 60.2688 31.6507 60.7368 32.8507H58.7748ZM67.5825 41.9227C66.6585 41.9227 65.8185 41.7127 65.0625 41.2927C64.3185 40.8727 63.7305 40.2787 63.2985 39.5107C62.8785 38.7307 62.6685 37.8307 62.6685 36.8107C62.6685 35.8027 62.8845 34.9147 63.3165 34.1467C63.7605 33.3667 64.3605 32.7727 65.1165 32.3647C65.8725 31.9447 66.7185 31.7347 67.6545 31.7347C68.5905 31.7347 69.4365 31.9447 70.1925 32.3647C70.9485 32.7727 71.5425 33.3607 71.9745 34.1287C72.4185 34.8967 72.6405 35.7907 72.6405 36.8107C72.6405 37.8307 72.4125 38.7307 71.9565 39.5107C71.5125 40.2787 70.9065 40.8727 70.1385 41.2927C69.3705 41.7127 68.5185 41.9227 67.5825 41.9227ZM67.5825 40.4827C68.1705 40.4827 68.7225 40.3447 69.2385 40.0687C69.7545 39.7927 70.1685 39.3787 70.4805 38.8267C70.8045 38.2747 70.9665 37.6027 70.9665 36.8107C70.9665 36.0187 70.8105 35.3467 70.4985 34.7947C70.1865 34.2427 69.7785 33.8347 69.2745 33.5707C68.7705 33.2947 68.2245 33.1567 67.6365 33.1567C67.0365 33.1567 66.4845 33.2947 65.9805 33.5707C65.4885 33.8347 65.0925 34.2427 64.7925 34.7947C64.4925 35.3467 64.3425 36.0187 64.3425 36.8107C64.3425 37.6147 64.4865 38.2927 64.7745 38.8447C65.0745 39.3967 65.4705 39.8107 65.9625 40.0867C66.4545 40.3507 66.9945 40.4827 67.5825 40.4827ZM79.0962 41.9227C78.1722 41.9227 77.3322 41.7127 76.5762 41.2927C75.8322 40.8727 75.2442 40.2787 74.8122 39.5107C74.3922 38.7307 74.1822 37.8307 74.1822 36.8107C74.1822 35.8027 74.3982 34.9147 74.8302 34.1467C75.2742 33.3667 75.8742 32.7727 76.6302 32.3647C77.3862 31.9447 78.2322 31.7347 79.1682 31.7347C80.1042 31.7347 80.9502 31.9447 81.7062 32.3647C82.4622 32.7727 83.0562 33.3607 83.4882 34.1287C83.9322 34.8967 84.1542 35.7907 84.1542 36.8107C84.1542 37.8307 83.9262 38.7307 83.4702 39.5107C83.0262 40.2787 82.4202 40.8727 81.6522 41.2927C80.8842 41.7127 80.0322 41.9227 79.0962 41.9227ZM79.0962 40.4827C79.6842 40.4827 80.2362 40.3447 80.7522 40.0687C81.2682 39.7927 81.6822 39.3787 81.9942 38.8267C82.3182 38.2747 82.4802 37.6027 82.4802 36.8107C82.4802 36.0187 82.3242 35.3467 82.0122 34.7947C81.7002 34.2427 81.2922 33.8347 80.7882 33.5707C80.2842 33.2947 79.7382 33.1567 79.1502 33.1567C78.5502 33.1567 77.9982 33.2947 77.4942 33.5707C77.0022 33.8347 76.6062 34.2427 76.3062 34.7947C76.0062 35.3467 75.8562 36.0187 75.8562 36.8107C75.8562 37.6147 76.0002 38.2927 76.2882 38.8447C76.5882 39.3967 76.9842 39.8107 77.4762 40.0867C77.9682 40.3507 78.5082 40.4827 79.0962 40.4827ZM90.3759 31.7347C91.2279 31.7347 91.9719 31.9207 92.6079 32.2927C93.2559 32.6647 93.7359 33.1327 94.0479 33.6967V31.8967H95.7039V41.9767C95.7039 42.8767 95.5119 43.6747 95.1279 44.3707C94.7439 45.0787 94.1919 45.6307 93.4719 46.0267C92.7639 46.4227 91.9359 46.6207 90.9879 46.6207C89.6919 46.6207 88.6119 46.3147 87.7479 45.7027C86.8839 45.0907 86.3739 44.2567 86.2179 43.2007H87.8379C88.0179 43.8007 88.3899 44.2807 88.9539 44.6407C89.5179 45.0127 90.1959 45.1987 90.9879 45.1987C91.8879 45.1987 92.6199 44.9167 93.1839 44.3527C93.7599 43.7887 94.0479 42.9967 94.0479 41.9767V39.9067C93.7239 40.4827 93.2439 40.9627 92.6079 41.3467C91.9719 41.7307 91.2279 41.9227 90.3759 41.9227C89.4999 41.9227 88.7019 41.7067 87.9819 41.2747C87.2739 40.8427 86.7159 40.2367 86.3079 39.4567C85.8999 38.6767 85.6959 37.7887 85.6959 36.7927C85.6959 35.7847 85.8999 34.9027 86.3079 34.1467C86.7159 33.3787 87.2739 32.7847 87.9819 32.3647C88.7019 31.9447 89.4999 31.7347 90.3759 31.7347ZM94.0479 36.8107C94.0479 36.0667 93.8979 35.4187 93.5979 34.8667C93.2979 34.3147 92.8899 33.8947 92.3739 33.6067C91.8699 33.3067 91.3119 33.1567 90.6999 33.1567C90.0879 33.1567 89.5299 33.3007 89.0259 33.5887C88.5219 33.8767 88.1199 34.2967 87.8199 34.8487C87.5199 35.4007 87.3699 36.0487 87.3699 36.7927C87.3699 37.5487 87.5199 38.2087 87.8199 38.7727C88.1199 39.3247 88.5219 39.7507 89.0259 40.0507C89.5299 40.3387 90.0879 40.4827 90.6999 40.4827C91.3119 40.4827 91.8699 40.3387 92.3739 40.0507C92.8899 39.7507 93.2979 39.3247 93.5979 38.7727C93.8979 38.2087 94.0479 37.5547 94.0479 36.8107ZM100.11 28.4407V41.7607H98.4719V28.4407H100.11ZM111.902 36.4507C111.902 36.7627 111.884 37.0927 111.848 37.4407H103.964C104.024 38.4127 104.354 39.1747 104.954 39.7267C105.566 40.2667 106.304 40.5367 107.168 40.5367C107.876 40.5367 108.464 40.3747 108.932 40.0507C109.412 39.7147 109.748 39.2707 109.94 38.7187H111.704C111.44 39.6667 110.912 40.4407 110.12 41.0407C109.328 41.6287 108.344 41.9227 107.168 41.9227C106.232 41.9227 105.392 41.7127 104.648 41.2927C103.916 40.8727 103.34 40.2787 102.92 39.5107C102.5 38.7307 102.29 37.8307 102.29 36.8107C102.29 35.7907 102.494 34.8967 102.902 34.1287C103.31 33.3607 103.88 32.7727 104.612 32.3647C105.356 31.9447 106.208 31.7347 107.168 31.7347C108.104 31.7347 108.932 31.9387 109.652 32.3467C110.372 32.7547 110.924 33.3187 111.308 34.0387C111.704 34.7467 111.902 35.5507 111.902 36.4507ZM110.21 36.1087C110.21 35.4847 110.072 34.9507 109.796 34.5067C109.52 34.0507 109.142 33.7087 108.662 33.4807C108.194 33.2407 107.672 33.1207 107.096 33.1207C106.268 33.1207 105.56 33.3847 104.972 33.9127C104.396 34.4407 104.066 35.1727 103.982 36.1087H110.21ZM127.251 32.8867C127.251 33.9307 126.891 34.8007 126.171 35.4967C125.463 36.1807 124.377 36.5227 122.913 36.5227H120.501V41.7607H118.863V29.2147H122.913C124.329 29.2147 125.403 29.5567 126.135 30.2407C126.879 30.9247 127.251 31.8067 127.251 32.8867ZM122.913 35.1727C123.825 35.1727 124.497 34.9747 124.929 34.5787C125.361 34.1827 125.577 33.6187 125.577 32.8867C125.577 31.3387 124.689 30.5647 122.913 30.5647H120.501V35.1727H122.913ZM130.924 28.4407V41.7607H129.286V28.4407H130.924ZM133.104 36.7927C133.104 35.7847 133.308 34.9027 133.716 34.1467C134.124 33.3787 134.682 32.7847 135.39 32.3647C136.11 31.9447 136.908 31.7347 137.784 31.7347C138.648 31.7347 139.398 31.9207 140.034 32.2927C140.67 32.6647 141.144 33.1327 141.456 33.6967V31.8967H143.112V41.7607H141.456V39.9247C141.132 40.5007 140.646 40.9807 139.998 41.3647C139.362 41.7367 138.618 41.9227 137.766 41.9227C136.89 41.9227 136.098 41.7067 135.39 41.2747C134.682 40.8427 134.124 40.2367 133.716 39.4567C133.308 38.6767 133.104 37.7887 133.104 36.7927ZM141.456 36.8107C141.456 36.0667 141.306 35.4187 141.006 34.8667C140.706 34.3147 140.298 33.8947 139.782 33.6067C139.278 33.3067 138.72 33.1567 138.108 33.1567C137.496 33.1567 136.938 33.3007 136.434 33.5887C135.93 33.8767 135.528 34.2967 135.228 34.8487C134.928 35.4007 134.778 36.0487 134.778 36.7927C134.778 37.5487 134.928 38.2087 135.228 38.7727C135.528 39.3247 135.93 39.7507 136.434 40.0507C136.938 40.3387 137.496 40.4827 138.108 40.4827C138.72 40.4827 139.278 40.3387 139.782 40.0507C140.298 39.7507 140.706 39.3247 141.006 38.7727C141.306 38.2087 141.456 37.5547 141.456 36.8107ZM154.376 31.8967L148.436 46.4047H146.744L148.688 41.6527L144.71 31.8967H146.528L149.624 39.8887L152.684 31.8967H154.376Z" fill="white"/>
<path d="M9.2832 41.9081V9.09677L41.0308 25.033L9.2832 41.9081Z" fill="#5CA9B3"/>
<path d="M9.2832 9.09677L31.747 29.9726L41.0308 25.033L9.2832 9.09677Z" fill="#C8DB9B"/>
<path d="M31.5546 20.2719L9.2832 41.9078L41.0308 25.0327L31.5546 20.2719Z" fill="#AC5067"/>
<path d="M31.7478 29.9723L41.0316 25.0327L31.5554 20.2719L26.5527 25.1445L31.7478 29.9723Z" fill="#F4A676"/>
</svg>
