<svg width="78" height="71" viewBox="0 0 78 71" fill="none" xmlns="http://www.w3.org/2000/svg">
<rect y="-0.00299072" width="77.234" height="70.7861" rx="3" fill="#FF9F0D"/>
<path d="M38.6152 28.0164V35.3899" stroke="white" stroke-width="1.5" stroke-linecap="round" stroke-linejoin="round"/>
<path d="M45.0466 39.0767L38.6152 35.3899" stroke="white" stroke-width="1.5" stroke-linecap="round" stroke-linejoin="round"/>
<path d="M47.3066 31.0451H53.4953V24.9004" stroke="white" stroke-width="1.5" stroke-linecap="round" stroke-linejoin="round"/>
<path d="M48.2442 44.9487C46.3401 46.8393 43.9141 48.1268 41.2731 48.6484C38.632 49.17 35.8945 48.9023 33.4067 47.8791C30.9189 46.8559 28.7925 45.1233 27.2965 42.9002C25.8005 40.6772 25.002 38.0636 25.002 35.3899C25.002 32.7163 25.8005 30.1027 27.2965 27.8796C28.7925 25.6566 30.9189 23.9239 33.4067 22.9007C35.8945 21.8776 38.632 21.6099 41.2731 22.1315C43.9141 22.6531 46.3401 23.9406 48.2442 25.8311L53.4954 31.045" stroke="white" stroke-width="1.5" stroke-linecap="round" stroke-linejoin="round"/>
</svg>
